<?xml version="1.0" encoding="UTF-8" standalone="no"?>
<!DOCTYPE svg PUBLIC "-//W3C//DTD SVG 1.1//EN" "http://www.w3.org/Graphics/SVG/1.1/DTD/svg11.dtd">
<svg xmlns="http://www.w3.org/2000/svg" version="1.1" viewBox="0.00 0.00 500.00 500.00">
<path fill="#ffffff" d="
  M 301.12 158.67
  C 297.36 156.63 293.11 155.53 288.99 154.14
  Q 257.39 143.53 226.03 154.49
  C 223.00 155.54 219.72 156.33 216.83 157.77
  C 209.69 161.34 202.28 165.73 196.51 171.24
  C 192.34 175.22 188.07 178.74 184.23 183.18
  Q 179.30 188.90 178.42 190.69
  Q 176.84 193.92 174.94 196.77
  C 172.30 200.72 170.23 204.88 168.41 209.21
  Q 150.42 252.17 170.95 293.48
  Q 173.23 298.06 176.65 303.53
  Q 182.31 312.54 189.46 319.56
  Q 191.48 321.55 193.83 323.13
  C 196.03 324.62 197.64 326.68 199.73 328.17
  Q 211.77 336.74 225.43 341.82
  C 229.51 343.34 234.14 344.03 238.55 344.92
  C 254.13 348.06 269.19 347.00 284.55 343.19
  C 296.83 340.15 307.46 333.76 317.83 326.60
  C 321.36 324.15 325.02 323.52 328.48 326.60
  C 333.71 331.25 331.64 337.06 326.58 340.56
  C 315.37 348.33 303.37 355.07 290.46 358.91
  Q 244.10 372.69 201.27 348.75
  Q 198.65 347.28 196.58 345.63
  C 194.55 344.01 192.13 343.32 190.11 341.76
  Q 181.39 335.03 178.98 332.18
  C 174.87 327.32 169.79 322.50 166.35 317.76
  Q 160.53 309.75 157.13 302.84
  C 152.64 293.72 148.69 283.16 146.60 273.33
  Q 140.18 243.12 149.24 213.91
  C 150.73 209.08 152.40 204.06 154.57 199.57
  Q 156.02 196.55 157.45 193.46
  Q 159.42 189.21 163.21 183.66
  C 167.38 177.55 172.42 172.03 177.21 166.43
  C 179.95 163.22 183.73 159.52 187.28 157.22
  Q 191.35 154.59 195.30 151.60
  C 203.54 145.39 213.47 140.84 223.20 137.46
  Q 227.55 135.96 232.57 135.26
  C 236.79 134.68 240.80 133.59 245.05 133.13
  Q 258.98 131.63 271.66 133.42
  Q 277.19 134.20 282.72 135.17
  Q 288.88 136.25 293.59 137.96
  Q 310.71 144.17 320.30 151.20
  Q 326.65 155.84 328.35 156.91
  Q 330.22 158.09 331.11 160.94
  C 332.51 165.42 329.09 169.37 325.04 170.75
  Q 321.62 171.92 318.57 169.68
  Q 310.50 163.77 301.12 158.67
  Z"
/>
<rect fill="#ffffff" x="-7.89" y="-29.94" transform="translate(261.16,191.14) rotate(-0.1)" width="15.78" height="59.88" rx="7.67"/>
<path fill="#ffffff" d="
  M 240.19 221.00
  C 236.37 219.82 232.16 218.58 229.58 215.43
  Q 224.52 209.24 220.20 202.99
  Q 217.45 199.00 213.65 194.65
  Q 209.48 189.86 207.50 186.20
  C 204.11 179.91 209.46 173.47 216.06 174.68
  C 217.69 174.98 221.21 177.61 222.20 178.98
  Q 228.01 187.02 235.02 195.90
  Q 239.30 201.31 240.71 205.73
  Q 243.12 213.22 240.92 220.61
  A 0.58 0.58 0.0 0 1 240.19 221.00
  Z"
/>
<path fill="#ffffff" d="
  M 282.73 229.91
  Q 285.46 223.69 288.72 219.49
  Q 295.41 210.88 303.81 204.38
  C 307.69 201.37 312.63 198.60 317.43 197.16
  C 320.77 196.16 323.92 194.74 327.36 193.96
  Q 338.59 191.41 349.04 192.15
  Q 350.77 192.27 350.01 193.83
  Q 346.34 201.46 342.30 209.29
  Q 340.83 212.12 337.09 216.24
  C 328.06 226.18 317.93 234.62 305.19 238.69
  Q 292.54 242.74 280.14 243.44
  A 0.63 0.63 0.0 0 1 279.49 242.67
  Q 280.69 237.49 281.92 232.30
  Q 282.21 231.10 282.73 229.91
  Z"
/>
<path fill="#ffffff" d="
  M 182.73 206.19
  C 185.92 201.41 191.81 200.51 196.63 204.16
  Q 206.78 211.84 216.50 221.63
  Q 217.46 222.60 218.32 223.67
  Q 219.01 224.54 217.90 224.60
  Q 208.88 225.03 201.51 224.62
  Q 196.45 224.33 190.91 220.54
  Q 189.35 219.47 187.52 218.74
  C 182.84 216.87 179.70 210.72 182.73 206.19
  Z"
/>
<rect fill="#ffffff" x="-32.07" y="-7.92" transform="translate(205.19,246.51) rotate(-0.1)" width="64.14" height="15.84" rx="7.70"/>
<path fill="#ffffff" d="
  M 195.98 290.38
  C 188.27 297.14 177.15 287.63 183.22 279.62
  C 187.20 274.37 195.16 268.17 202.39 268.03
  Q 209.53 267.90 217.90 268.05
  Q 219.06 268.07 218.33 268.97
  C 214.30 274.03 209.74 279.05 204.44 283.30
  Q 200.11 286.77 195.98 290.38
  Z"
/>
<path fill="#ffffff" d="
  M 241.11 272.79
  C 242.84 279.10 242.12 285.86 238.80 291.50
  C 235.39 297.28 230.53 302.40 226.47 307.73
  Q 223.16 312.08 220.12 316.18
  Q 217.69 319.44 215.84 320.28
  Q 212.28 321.89 208.75 319.52
  C 204.90 316.93 203.83 312.27 206.15 308.27
  Q 207.90 305.27 210.33 302.48
  Q 213.84 298.47 216.81 293.87
  C 220.55 288.10 224.63 282.60 229.24 277.62
  Q 232.96 273.60 240.52 272.41
  Q 240.98 272.33 241.11 272.79
  Z"
/>
<rect fill="#ffffff" x="-7.85" y="-29.46" transform="translate(261.15,304.90) rotate(0.1)" width="15.70" height="58.92" rx="7.63"/>
</svg>
